<svg xmlns="http://www.w3.org/2000/svg" width="16" height="16" viewBox="0 0 16 16">
    <g fill="none" fill-rule="evenodd">
        <path d="M0 0L16 0 16 16 0 16z"/>
        <path fill="#000" fill-opacity=".87" d="M13.315 10.041c-.82 0-1.613-.133-2.353-.373-.234-.08-.494-.02-.674.16l-.745.833c-.112.125-.29.167-.446.105-.969-.385-1.74-.913-2.311-1.585-.56-.659-1.073-1.45-1.535-2.37-.089-.177-.036-.391.125-.506l.859-.612c.18-.186.233-.446.16-.68-.247-.74-.374-1.533-.374-2.353 0-.36-.3-.66-.66-.66H2.793C2.433 2 2 2.16 2 2.66 2 8.853 7.153 14 13.34 14c.473 0 .66-.42.66-.787l-.025-2.512c0-.36-.3-.66-.66-.66z"/>
    </g>
</svg>
