<svg version="1.1" preserveAspectRatio="none" xmlns="http://www.w3.org/2000/svg" width="500" height="500" viewBox="0 0 500 500"><rect width="100%" height="100%" fill="#F5E7E0" fill-opacity="1"/><svg viewBox="36.7721 58.9249 379.1514 218.1784" width="333" height="191.6210970076861" x="83.5px" y="154.1895px" xmlns="http://www.w3.org/2000/svg" xmlns:xlink="http://www.w3.org/1999/xlink" preserveAspectRatio="none"><defs></defs><style>.companyName {fill:#C66358;fill-opacity:1;}.icon1 {fill:#C66358;fill-opacity:1;}.icon2 {fill:#E3BBA7;fill-opacity:1;}.icon3 {fill:#985A55;fill-opacity:1;}.icon3-str {stroke:#985A55;stroke-opacity:1;}.text {fill:#C66358;fill-opacity:1;}</style><g opacity="1" transform="rotate(0 169.4751 58.9249)">
<svg width="113.7454" height="118.1784" x="169.4751" y="58.9249" version="1.1" preserveAspectRatio="none" viewBox="23.001758575439453 19.999996185302734 153.9983673095703 160">
  <g transform="matrix(1 0 0 1 0 0)"><g><path d="M100 180a3.81 3.81 0 0 1-3.81-3.81V23.81a3.81 3.81 0 0 1 7.62 0v152.38A3.81 3.81 0 0 1 100 180z" data-color="1" class="icon1"></path><path d="M100 59.365c-.975 0-1.95-.372-2.694-1.116L71.907 32.852a3.808 3.808 0 1 1 5.387-5.387l25.399 25.397A3.808 3.808 0 0 1 100 59.365z" data-color="1" class="icon1"></path><path d="M100 59.365a3.808 3.808 0 0 1-2.694-6.503l25.399-25.397a3.808 3.808 0 1 1 5.387 5.387l-25.399 25.397A3.796 3.796 0 0 1 100 59.365z" data-color="1" class="icon1"></path><path d="M74.6 173.651a3.808 3.808 0 0 1-2.694-6.503l25.399-25.397a3.808 3.808 0 1 1 5.387 5.387l-25.399 25.397a3.792 3.792 0 0 1-2.693 1.116z" data-color="1" class="icon1"></path><path d="M125.399 173.651c-.975 0-1.95-.372-2.694-1.116l-25.399-25.397a3.808 3.808 0 1 1 5.387-5.387l25.399 25.397a3.808 3.808 0 0 1-2.693 6.503z" data-color="1" class="icon1"></path><path d="M165.984 141.906a3.796 3.796 0 0 1-1.901-.511L32.107 65.204a3.81 3.81 0 1 1 3.81-6.599l131.977 76.19a3.81 3.81 0 0 1-1.91 7.111z" data-color="1" class="icon1"></path><path d="M26.809 90.884a3.81 3.81 0 0 1-.984-7.49l34.696-9.296a3.81 3.81 0 1 1 1.972 7.359l-34.696 9.296a3.84 3.84 0 0 1-.988.131z" data-color="1" class="icon1"></path><path d="M61.505 81.588a3.81 3.81 0 0 1-3.678-2.824L48.53 44.07a3.81 3.81 0 0 1 7.36-1.973l9.297 34.693a3.81 3.81 0 0 1-3.682 4.798z" data-color="1" class="icon1"></path><path d="M147.788 160.725a3.81 3.81 0 0 1-3.678-2.824l-9.297-34.692a3.81 3.81 0 0 1 7.36-1.973l9.297 34.692a3.81 3.81 0 0 1-3.682 4.797z" data-color="1" class="icon1"></path><path d="M138.491 126.033a3.81 3.81 0 0 1-.984-7.49l34.696-9.297a3.809 3.809 0 1 1 1.972 7.359l-34.696 9.297c-.33.088-.662.131-.988.131z" data-color="1" class="icon1"></path><path d="M34.016 141.906a3.811 3.811 0 0 1-1.909-7.11l131.977-76.19a3.81 3.81 0 0 1 3.81 6.599l-131.977 76.19a3.799 3.799 0 0 1-1.901.511z" data-color="1" class="icon1"></path><path d="M138.495 81.588a3.81 3.81 0 0 1-3.682-4.797l9.297-34.693a3.809 3.809 0 1 1 7.36 1.973l-9.297 34.693a3.813 3.813 0 0 1-3.678 2.824z" data-color="1" class="icon1"></path><path d="M173.191 90.884c-.326 0-.658-.043-.988-.131l-34.696-9.296a3.81 3.81 0 0 1 1.972-7.359l34.696 9.296a3.81 3.81 0 0 1-.984 7.49z" data-color="1" class="icon1"></path><path d="M61.509 126.033c-.326 0-.658-.043-.988-.131l-34.696-9.297a3.81 3.81 0 0 1 1.972-7.359l34.696 9.297a3.81 3.81 0 0 1-.984 7.49z" data-color="1" class="icon1"></path><path d="M52.212 160.725a3.81 3.81 0 0 1-3.682-4.797l9.297-34.692a3.81 3.81 0 0 1 7.36 1.973l-9.297 34.692a3.813 3.813 0 0 1-3.678 2.824z" data-color="1" class="icon1"></path></g></g>
</svg>
</g><g opacity="1" transform="rotate(0 133.8117 257.1033)">
<svg width="185.0722" height="20" x="133.8117" y="257.1033" version="1.1" preserveAspectRatio="none" viewBox="2.56 -29.2 349.72 37.8">
  <g transform="matrix(1 0 0 1 0 0)" class="text"><path id="id-6izo4zJp16" d="M18.72-20L21.52-20L21.52 8.40L18.32 8.40L18.32-3.12Q17.36-1.52 15.62-0.56Q13.88 0.40 11.68 0.40L11.68 0.40Q7.48 0.40 5.02-2.38Q2.56-5.16 2.56-10L2.56-10Q2.56-14.84 5.02-17.62Q7.48-20.40 11.68-20.40L11.68-20.40Q14-20.40 15.82-19.34Q17.64-18.28 18.52-16.52L18.52-16.52L18.72-20ZM12.04-2.40Q14.92-2.40 16.62-4.40Q18.32-6.40 18.32-9.76L18.32-9.76L18.32-10.24Q18.32-13.60 16.62-15.60Q14.92-17.60 12.04-17.60L12.04-17.60Q9.12-17.60 7.44-15.54Q5.76-13.48 5.76-10L5.76-10Q5.76-6.52 7.44-4.46Q9.12-2.40 12.04-2.40L12.04-2.40Z M45.08-20L48.28-20L48.28 0L45.48 0L45.28-3.04Q43.28 0.40 38.12 0.40L38.12 0.40Q34.88 0.40 32.82-1.40Q30.76-3.20 30.76-6.92L30.76-6.92L30.76-20L33.96-20L33.96-7.76Q33.96-4.84 35.16-3.62Q36.36-2.40 38.68-2.40L38.68-2.40Q41.44-2.40 43.26-4.08Q45.08-5.76 45.08-9.12L45.08-9.12L45.08-20Z M74.12-2.32Q74.92-2.32 75.72-2.52L75.72-2.52L75.52 0Q74.40 0.40 73.12 0.40L73.12 0.40Q71.56 0.40 70.66-0.28Q69.76-0.96 69.52-2.56L69.52-2.56Q68.60-1.16 66.82-0.38Q65.04 0.40 63.08 0.40L63.08 0.40Q60.12 0.40 58.20-0.98Q56.28-2.36 56.28-4.96L56.28-4.96Q56.28-7.24 58.28-8.90Q60.28-10.56 64.08-11.20L64.08-11.20L69.40-12.08L69.40-13.20Q69.40-15.20 68.16-16.40Q66.92-17.60 64.72-17.60L64.72-17.60Q62.72-17.60 61.26-16.64Q59.80-15.68 59-13.80L59-13.80L56.64-15.52Q57.44-17.76 59.62-19.08Q61.80-20.40 64.72-20.40L64.72-20.40Q68.28-20.40 70.44-18.68Q72.60-16.96 72.60-13.60L72.60-13.60L72.60-3.76Q72.60-3.04 72.96-2.68Q73.32-2.32 74.12-2.32L74.12-2.32ZM63.24-2.40Q65.76-2.40 67.58-3.60Q69.40-4.80 69.40-6.72L69.40-6.72L69.40-9.48L64.92-8.64Q62.24-8.16 60.92-7.26Q59.60-6.36 59.60-4.96L59.60-4.96Q59.60-3.72 60.56-3.06Q61.52-2.40 63.24-2.40L63.24-2.40Z M85.40-29.20L85.40-5.36Q85.40-3.84 85.86-3.26Q86.32-2.68 87.56-2.68L87.56-2.68Q88.40-2.68 89.02-2.80Q89.64-2.92 90.48-3.24L90.48-3.24L89.96-0.16Q88.64 0.40 87 0.40L87 0.40Q84.56 0.40 83.38-0.92Q82.20-2.24 82.20-4.96L82.20-4.96L82.20-29.20L85.40-29.20Z M98.20-23.84Q97.12-23.84 96.46-24.50Q95.80-25.16 95.80-26.24L95.80-26.24Q95.80-27.32 96.46-27.98Q97.12-28.64 98.20-28.64L98.20-28.64Q99.28-28.64 99.94-27.98Q100.60-27.32 100.60-26.24L100.60-26.24Q100.60-25.16 99.94-24.50Q99.28-23.84 98.20-23.84L98.20-23.84ZM99.80-20L99.80 0L96.60 0L96.60-20L99.80-20Z M120.36-4.08L121.48-1.40Q119.48 0.40 116.32 0.40L116.32 0.40Q113.88 0.40 112.34-0.92Q110.80-2.24 110.76-4.96L110.76-4.96L110.76-17.24L106.76-17.24L106.76-20L110.76-20L110.76-24.80L113.96-25.68L113.96-20L121.36-20L121.36-17.24L113.96-17.24L113.96-5.52Q113.96-4.08 114.78-3.34Q115.60-2.60 116.96-2.60L116.96-2.60Q118.88-2.60 120.36-4.08L120.36-4.08Z M145.16-11.04Q145.16-9.92 145-8.80L145-8.80L129.92-8.80Q130.20-5.76 131.94-4.08Q133.68-2.40 136.44-2.40L136.44-2.40Q138.64-2.40 140.10-3.16Q141.56-3.92 142.08-5.36L142.08-5.36L144.76-3.96Q143.56-1.84 141.56-0.72Q139.56 0.40 136.44 0.40L136.44 0.40Q131.92 0.40 129.34-2.36Q126.76-5.12 126.76-10L126.76-10Q126.76-14.88 129.22-17.64Q131.68-20.40 136.20-20.40L136.20-20.40Q139-20.40 141.04-19.16Q143.08-17.92 144.12-15.80Q145.16-13.68 145.16-11.04L145.16-11.04ZM136.20-17.60Q133.56-17.60 131.94-16.04Q130.32-14.48 129.96-11.64L129.96-11.64L142.08-11.64Q141.76-14.44 140.24-16.02Q138.72-17.60 136.20-17.60L136.20-17.60Z M169.28-20L159.88 3.36Q158.72 6.24 157.28 7.42Q155.84 8.60 153.56 8.60L153.56 8.60Q152.04 8.60 151.02 8.20Q150 7.80 149.16 6.92L149.16 6.92L150.28 4.20Q151.44 5.80 153.52 5.80L153.52 5.80Q154.68 5.80 155.58 5.10Q156.48 4.40 157.16 2.56L157.16 2.56L158.20-0.04L149.84-20L153.48-20L158.48-6.96L159.72-3.40L161.16-7.36L165.84-20L169.28-20Z M200.16-20.40Q204.36-20.40 206.82-17.62Q209.28-14.84 209.28-10L209.28-10Q209.28-5.16 206.82-2.38Q204.36 0.40 200.16 0.40L200.16 0.40Q197.96 0.40 196.22-0.56Q194.48-1.52 193.52-3.12L193.52-3.12L193.52 8.40L190.32 8.40L190.32-20L193.12-20L193.32-16.52Q194.20-18.28 196.02-19.34Q197.84-20.40 200.16-20.40L200.16-20.40ZM199.80-2.40Q202.72-2.40 204.40-4.46Q206.08-6.52 206.08-10L206.08-10Q206.08-13.48 204.40-15.54Q202.72-17.60 199.80-17.60L199.80-17.60Q196.92-17.60 195.22-15.60Q193.52-13.60 193.52-10.24L193.52-10.24L193.52-9.76Q193.52-6.40 195.22-4.40Q196.92-2.40 199.80-2.40L199.80-2.40Z M226.96-20.40Q228.40-20.40 229.16-20L229.16-20L228.52-16.88Q227.56-17.40 226-17.40L226-17.40Q224.72-17.40 223.50-16.66Q222.28-15.92 221.50-14.42Q220.72-12.92 220.72-10.80L220.72-10.80L220.72 0L217.52 0L217.52-20L220.12-20L220.56-16.72Q222.24-20.40 226.96-20.40L226.96-20.40Z M243.64-20.40Q248.16-20.40 250.74-17.64Q253.32-14.88 253.32-10L253.32-10Q253.32-5.12 250.74-2.36Q248.16 0.40 243.64 0.40L243.64 0.40Q239.12 0.40 236.54-2.36Q233.96-5.12 233.96-10L233.96-10Q233.96-14.88 236.54-17.64Q239.12-20.40 243.64-20.40L243.64-20.40ZM243.64-17.64Q240.60-17.64 238.88-15.60Q237.16-13.56 237.16-10L237.16-10Q237.16-6.44 238.88-4.40Q240.60-2.36 243.64-2.36L243.64-2.36Q246.68-2.36 248.40-4.40Q250.12-6.44 250.12-10L250.12-10Q250.12-13.56 248.40-15.60Q246.68-17.64 243.64-17.64L243.64-17.64Z M276.08-29.20L279.28-29.20L279.28 0L276.48 0L276.28-3.48Q275.40-1.72 273.58-0.66Q271.76 0.40 269.44 0.40L269.44 0.40Q265.24 0.40 262.78-2.38Q260.32-5.16 260.32-10L260.32-10Q260.32-14.84 262.78-17.62Q265.24-20.40 269.44-20.40L269.44-20.40Q271.64-20.40 273.38-19.44Q275.12-18.48 276.08-16.88L276.08-16.88L276.08-29.20ZM269.80-2.40Q272.68-2.40 274.38-4.40Q276.08-6.40 276.08-9.76L276.08-9.76L276.08-10.24Q276.08-13.60 274.38-15.60Q272.68-17.60 269.80-17.60L269.80-17.60Q266.88-17.60 265.20-15.54Q263.52-13.48 263.52-10L263.52-10Q263.52-6.52 265.20-4.46Q266.88-2.40 269.80-2.40L269.80-2.40Z M302.84-20L306.04-20L306.04 0L303.24 0L303.04-3.04Q301.04 0.40 295.88 0.40L295.88 0.40Q292.64 0.40 290.58-1.40Q288.52-3.20 288.52-6.92L288.52-6.92L288.52-20L291.72-20L291.72-7.76Q291.72-4.84 292.92-3.62Q294.12-2.40 296.44-2.40L296.44-2.40Q299.20-2.40 301.02-4.08Q302.84-5.76 302.84-9.12L302.84-9.12L302.84-20Z M323.92-20.40Q326.92-20.40 328.98-19.02Q331.04-17.64 332.20-15.08L332.20-15.08L329.16-13.64Q327.88-17.60 323.84-17.60L323.84-17.60Q320.84-17.60 319.14-15.58Q317.44-13.56 317.44-10L317.44-10Q317.44-6.44 319.14-4.42Q320.84-2.40 323.84-2.40L323.84-2.40Q326.16-2.40 327.58-3.46Q329-4.52 329.44-6.52L329.44-6.52L332.40-5.48Q331.36-2.68 329.20-1.14Q327.04 0.40 323.92 0.40L323.92 0.40Q319.40 0.40 316.82-2.36Q314.24-5.12 314.24-10L314.24-10Q314.24-14.88 316.82-17.64Q319.40-20.40 323.92-20.40L323.92-20.40Z M351.16-4.08L352.28-1.40Q350.28 0.40 347.12 0.40L347.12 0.40Q344.68 0.40 343.14-0.92Q341.60-2.24 341.56-4.96L341.56-4.96L341.56-17.24L337.56-17.24L337.56-20L341.56-20L341.56-24.80L344.76-25.68L344.76-20L352.16-20L352.16-17.24L344.76-17.24L344.76-5.52Q344.76-4.08 345.58-3.34Q346.40-2.60 347.76-2.60L347.76-2.60Q349.68-2.60 351.16-4.08L351.16-4.08Z"/></g>
</svg>
</g><g opacity="1" transform="rotate(0 36.7721 203.1033)">
<svg width="379.1514" height="34" x="36.7721" y="203.1033" version="1.1" preserveAspectRatio="none" viewBox="1.6 -27.24 309.12 27.72">
  <g transform="matrix(1 0 0 1 0 0)" class="companyName"><path id="id-D6z1nYkh16" d="M35.20-11.12L35.20-0.80L37.20-0.80L37.20 0L27.20 0L27.20-0.80L29.20-0.80L29.20-12Q29.20-14.84 28.36-16.04Q27.52-17.24 25.84-17.24L25.84-17.24Q24.88-17.24 23.84-16.68Q22.80-16.12 22.12-15.12L22.12-15.12Q22.60-13.68 22.60-11.12L22.60-11.12L22.60-0.80L24.60-0.80L24.60 0L14.20 0L14.20-0.80L16.60-0.80L16.60-12Q16.60-14.84 15.76-16.04Q14.92-17.24 13.24-17.24L13.24-17.24Q10.96-17.24 9.60-14.84L9.60-14.84L9.60-0.80L11.60-0.80L11.60 0L1.60 0L1.60-0.80L3.60-0.80L3.60-17.60L1.60-17.60L1.60-18.40L9.60-18.40L9.60-16.32Q10.36-17.36 11.98-18.10Q13.60-18.84 15.48-18.84L15.48-18.84Q20.24-18.84 21.68-16.16L21.68-16.16Q22.72-17.44 24.44-18.14Q26.16-18.84 28.08-18.84L28.08-18.84Q35.20-18.84 35.20-11.12L35.20-11.12Z M61.80 0L53.80 0L53.80-2.12Q53.04-1.04 51.42-0.30Q49.80 0.44 47.92 0.44L47.92 0.44Q40.80 0.44 40.80-7.28L40.80-7.28L40.80-17.60L38.80-17.60L38.80-18.40L46.80-18.40L46.80-6.40Q46.80-3.56 47.64-2.36Q48.48-1.16 50.16-1.16L50.16-1.16Q52.40-1.16 53.80-3.56L53.80-3.56L53.80-17.60L51.80-17.60L51.80-18.40L59.80-18.40L59.80-0.80L61.80-0.80L61.80 0Z M72.60-26.80L72.60-0.80L74.60-0.80L74.60 0L64.60 0L64.60-0.80L66.60-0.80L66.60-26L64.60-26L64.60-26.80L72.60-26.80Z M85.40-26.80L85.40-0.80L87.40-0.80L87.40 0L77.40 0L77.40-0.80L79.40-0.80L79.40-26L77.40-26L77.40-26.80L85.40-26.80Z M109.60-0.80Q109.20-0.40 108.08-0.10Q106.96 0.20 105.48 0.20L105.48 0.20Q102.20 0.20 101.36-1.76L101.36-1.76Q99.36 0.32 95.24 0.32L95.24 0.32Q93.04 0.32 91.62-0.70Q90.20-1.72 90.20-3.72L90.20-3.72Q90.20-6.40 92.28-7.86Q94.36-9.32 99.56-9.92L99.56-9.92L101.16-10.12L101.16-12.08Q101.16-15.56 100.64-16.76Q100.12-17.96 98.58-17.96Q97.04-17.96 96.60-17.54Q96.16-17.12 96.28-16.58Q96.40-16.04 96.68-15.16Q96.96-14.28 96.96-13.76L96.96-13.76Q96.96-12.52 96.10-11.66Q95.24-10.80 94.02-10.80Q92.80-10.80 91.92-11.66Q91.04-12.52 91.04-13.76L91.04-13.76Q91.04-15.80 93.14-17.26Q95.24-18.72 99.42-18.72Q103.60-18.72 105.38-17.08Q107.16-15.44 107.16-11.28L107.16-11.28L107.16-4.08Q107.16-1.96 107.68-1.42Q108.20-0.88 109.60-1.20L109.60-1.20L109.60-0.80ZM95.76-4.52Q95.96-3 96.88-2.18Q97.80-1.36 99.02-1.36Q100.24-1.36 101.16-2.56L101.16-2.56L101.16-9.36L99.72-9.16Q97.88-8.92 96.74-7.76Q95.60-6.60 95.76-4.52L95.76-4.52Z M120.00-18.40L120.00-0.80L122.00-0.80L122.00 0L112.00 0L112.00-0.80L114.00-0.80L114.00-17.60L112.40-17.60L112.40-18.40L120.00-18.40ZM120.36-23.70Q120.36-22.24 119.34-21.22Q118.32-20.20 116.86-20.20Q115.40-20.20 114.36-21.22Q113.32-22.24 113.32-23.70Q113.32-25.16 114.36-26.20Q115.40-27.24 116.86-27.24Q118.32-27.24 119.34-26.20Q120.36-25.16 120.36-23.70Z M143.40-0.80L143.40 0L133.40 0L133.40-0.80L135.40-0.80L135.40-17.60L133.40-17.60L133.40-18.40L141.40-18.40L141.40-13.64Q141.76-15.60 142.70-16.84Q143.64-18.08 144.78-18.48Q145.92-18.88 146.98-18.88Q148.04-18.88 149.02-18.50Q150.00-18.12 150.48-16.98Q150.96-15.84 150.52-14.70Q150.08-13.56 148.98-13.08Q147.88-12.60 146.96-12.96Q146.04-13.32 145.64-13.94Q145.24-14.56 145.08-15.12L145.08-15.12Q144.68-16.60 144.00-16.60L144.00-16.60Q143.24-16.60 142.32-13.98Q141.40-11.36 141.40-8.44L141.40-8.44L141.40-0.80L143.40-0.80Z M170.40-8L170.40-8L158.32-8Q158.72-0.96 163.80-0.96L163.80-0.96Q165.16-0.96 166.90-1.60Q168.64-2.24 169.44-3.40L169.44-3.40L170.00-3Q169.12-1.52 167.00-0.56Q164.88 0.40 162.78 0.40Q160.68 0.40 159.00-0.02Q157.32-0.44 155.72-1.44Q154.12-2.44 153.22-4.44Q152.32-6.44 152.32-9.28L152.32-9.28Q152.32-14.12 155.00-16.46Q157.68-18.80 161.50-18.80Q165.32-18.80 167.86-16.24Q170.40-13.68 170.40-8ZM158.28-9.24L158.28-8.80L164.80-8.80Q164.80-12.48 164.02-15.24Q163.24-18 161.52-18Q159.80-18 159.04-15.34Q158.28-12.68 158.28-9.24L158.28-9.24Z M182.12-0.32L182.12-0.32Q186.28-0.32 186.28-2.60L186.28-2.60Q186.28-3.88 184.84-4.70Q183.40-5.52 181.36-6.04Q179.32-6.56 177.34-7.24Q175.36-7.92 174.06-9.40Q172.76-10.88 173.00-13.28Q173.24-15.68 175.46-17.24Q177.68-18.80 180.94-18.80Q184.20-18.80 186.20-17.76Q188.20-16.72 188.44-14.96L188.44-14.96Q188.60-13.88 188.10-12.96Q187.60-12.04 186.46-12Q185.32-11.96 184.58-12.60Q183.84-13.24 183.88-14.08Q183.92-14.92 184.52-15.58Q185.12-16.24 185.12-16.64L185.12-16.64Q185.12-17.32 183.82-17.66Q182.52-18 180.82-18Q179.12-18 178.04-17.24Q176.96-16.48 176.96-15.36Q176.96-14.24 178.30-13.44Q179.64-12.64 181.56-12.14Q183.48-11.64 185.38-11.02Q187.28-10.40 188.62-9.04Q189.96-7.68 189.96-5.60L189.96-5.60Q189.96-2.84 188.00-1.18Q186.04 0.48 182.08 0.48Q178.12 0.48 175.66-0.72Q173.20-1.92 172.96-3.80L172.96-3.80Q172.80-4.88 173.32-5.80Q173.84-6.72 174.96-6.76Q176.08-6.80 176.82-6.16Q177.56-5.52 177.52-4.68Q177.48-3.84 176.88-3.18Q176.28-2.52 176.28-2.12L176.28-2.12Q176.28-1.32 178.14-0.82Q180.00-0.32 182.12-0.32Z M204.32-17.60L199.68-17.60L199.68-7.84Q199.68-4.40 199.96-3.66Q200.24-2.92 200.56-2.40L200.56-2.40Q201.16-1.36 202.66-1.36Q204.16-1.36 204.76-1.76L204.76-1.76L204.76-0.96Q202.84 0.40 200.56 0.40L200.56 0.40Q197.20 0.40 195.44-1.20Q193.68-2.80 193.68-6.92L193.68-6.92L193.68-17.60L190.72-17.60L190.72-18.40L193.68-18.40Q195.60-18.72 197.08-20.26Q198.56-21.80 199.12-24.52L199.12-24.52L199.68-24.52L199.68-18.40L204.32-18.40L204.32-17.60Z M228.56 0L220.56 0L220.56-2.12Q219.80-1.04 218.18-0.30Q216.56 0.44 214.68 0.44L214.68 0.44Q207.56 0.44 207.56-7.28L207.56-7.28L207.56-17.60L205.56-17.60L205.56-18.40L213.56-18.40L213.56-6.40Q213.56-3.56 214.40-2.36Q215.24-1.16 216.92-1.16L216.92-1.16Q219.16-1.16 220.56-3.56L220.56-3.56L220.56-17.60L218.56-17.60L218.56-18.40L226.56-18.40L226.56-0.80L228.56-0.80L228.56 0Z M241.36-0.80L241.36 0L231.36 0L231.36-0.80L233.36-0.80L233.36-17.60L231.36-17.60L231.36-18.40L239.36-18.40L239.36-13.64Q239.72-15.60 240.66-16.84Q241.60-18.08 242.74-18.48Q243.88-18.88 244.94-18.88Q246.00-18.88 246.98-18.50Q247.96-18.12 248.44-16.98Q248.92-15.84 248.48-14.70Q248.04-13.56 246.94-13.08Q245.84-12.60 244.92-12.96Q244.00-13.32 243.60-13.94Q243.20-14.56 243.04-15.12L243.04-15.12Q242.64-16.60 241.96-16.60L241.96-16.60Q241.20-16.60 240.28-13.98Q239.36-11.36 239.36-8.44L239.36-8.44L239.36-0.80L241.36-0.80Z M270.08-0.80Q269.68-0.40 268.56-0.10Q267.44 0.20 265.96 0.20L265.96 0.20Q262.68 0.20 261.84-1.76L261.84-1.76Q259.84 0.32 255.72 0.32L255.72 0.32Q253.52 0.32 252.10-0.70Q250.68-1.72 250.68-3.72L250.68-3.72Q250.68-6.40 252.76-7.86Q254.84-9.32 260.04-9.92L260.04-9.92L261.64-10.12L261.64-12.08Q261.64-15.56 261.12-16.76Q260.60-17.96 259.06-17.96Q257.52-17.96 257.08-17.54Q256.64-17.12 256.76-16.58Q256.88-16.04 257.16-15.16Q257.44-14.28 257.44-13.76L257.44-13.76Q257.44-12.52 256.58-11.66Q255.72-10.80 254.50-10.80Q253.28-10.80 252.40-11.66Q251.52-12.52 251.52-13.76L251.52-13.76Q251.52-15.80 253.62-17.26Q255.72-18.72 259.90-18.72Q264.08-18.72 265.86-17.08Q267.64-15.44 267.64-11.28L267.64-11.28L267.64-4.08Q267.64-1.96 268.16-1.42Q268.68-0.88 270.08-1.20L270.08-1.20L270.08-0.80ZM256.24-4.52Q256.44-3 257.36-2.18Q258.28-1.36 259.50-1.36Q260.72-1.36 261.64-2.56L261.64-2.56L261.64-9.36L260.20-9.16Q258.36-8.92 257.22-7.76Q256.08-6.60 256.24-4.52L256.24-4.52Z M293.48-11.12L293.48-0.80L295.48-0.80L295.48 0L285.48 0L285.48-0.80L287.48-0.80L287.48-12Q287.48-14.84 286.64-16.04Q285.80-17.24 284.12-17.24L284.12-17.24Q281.84-17.24 280.48-14.84L280.48-14.84L280.48-0.80L282.48-0.80L282.48 0L272.48 0L272.48-0.80L274.48-0.80L274.48-17.60L272.48-17.60L272.48-18.40L280.48-18.40L280.48-16.32Q281.24-17.36 282.86-18.10Q284.48-18.84 286.36-18.84L286.36-18.84Q293.48-18.84 293.48-11.12L293.48-11.12Z M310.28-17.60L305.64-17.60L305.64-7.84Q305.64-4.40 305.92-3.66Q306.20-2.92 306.52-2.40L306.52-2.40Q307.12-1.36 308.62-1.36Q310.12-1.36 310.72-1.76L310.72-1.76L310.72-0.96Q308.80 0.40 306.52 0.40L306.52 0.40Q303.16 0.40 301.40-1.20Q299.64-2.80 299.64-6.92L299.64-6.92L299.64-17.60L296.68-17.60L296.68-18.40L299.64-18.40Q301.56-18.72 303.04-20.26Q304.52-21.80 305.08-24.52L305.08-24.52L305.64-24.52L305.64-18.40L310.28-18.40L310.28-17.60Z"/></g>
</svg>
</g></svg></svg>